{
  "accessors": [
    {
      "bufferView": 2,
      "componentType": 5126,
      "count": 4542,
      "max": [
        115.93347930908203,
        98.39886474609375,
        133.19393920898438
      ],
      "min": [
        -115.93347930908203,
        -10.669576644897461,
        -137.64852905273438
      ],
      "type": "VEC3"
    },
    {
      "bufferView": 2,
      "byteOffset": 54504,
      "componentType": 5126,
      "count": 4542,
      "max": [
        0.9943383932113647,
        0.9999775290489197,
        0.999907910823822
      ],
      "min": [
        -0.9931238889694214,
        -0.9722817540168762,
        -0.9997920393943787
      ],
      "type": "VEC3"
    },
    {
      "bufferView": 3,
      "componentType": 5126,
      "count": 4542,
      "max": [
        0.991068422794342,
        0.9999254941940308,
        0.9976584315299988,
        1.0
      ],
      "min": [
        -0.9786030054092407,
        -0.9918747544288635,
        -0.9876040816307068,
        -1.0
      ],
      "type": "VEC4"
    },
    {
      "bufferView": 1,
      "componentType": 5126,
      "count": 4542,
      "max": [
        0.9942280650138855,
        0.999884307384491
      ],
      "min": [
        0.006417439319193363,
        0.006274686194956303
      ],
      "type": "VEC2"
    },
    {
      "bufferView": 1,
      "byteOffset": 36336,
      "componentType": 5126,
      "count": 4542,
      "max": [
        0.9942280650138855,
        0.999884307384491
      ],
      "min": [
        0.006417439319193363,
        0.006274686194956303
      ],
      "type": "VEC2"
    },
    {
      "bufferView": 1,
      "byteOffset": 72672,
      "componentType": 5126,
      "count": 4542,
      "max": [
        0.9942280650138855,
        0.999884307384491
      ],
      "min": [
        0.006417439319193363,
        0.006274686194956303
      ],
      "type": "VEC2"
    },
    {
      "bufferView": 0,
      "componentType": 5125,
      "count": 25302,
      "type": "SCALAR"
    }
  ],
  "asset": {
    "extras": {
      "author": "Mr. Max (https://sketchfab.com/Mr_MaxTV)",
      "license": "CC-BY-4.0 (http://creativecommons.org/licenses/by/4.0/)",
      "source": "https://sketchfab.com/3d-models/payday-dallas-mask-70311bb06f354ec58632e93674474b98",
      "title": "Payday Dallas mask"
    },
    "generator": "Sketchfab-15.25.0",
    "version": "2.0"
  },
  "bufferViews": [
    {
      "buffer": 0,
      "byteLength": 101208,
      "name": "floatBufferViews",
      "target": 34963
    },
    {
      "buffer": 0,
      "byteLength": 109008,
      "byteOffset": 101208,
      "byteStride": 8,
      "name": "floatBufferViews",
      "target": 34962
    },
    {
      "buffer": 0,
      "byteLength": 109008,
      "byteOffset": 210216,
      "byteStride": 12,
      "name": "floatBufferViews",
      "target": 34962
    },
    {
      "buffer": 0,
      "byteLength": 72672,
      "byteOffset": 319224,
      "byteStride": 16,
      "name": "floatBufferViews",
      "target": 34962
    }
  ],
  "buffers": [
    {
      "byteLength": 391896,
      "uri": "scene.bin"
    }
  ],
  "images": [
    {
      "uri": "textures/PayDay_Dallas_baseColor.png"
    },
    {
      "uri": "textures/PayDay_Dallas_metallicRoughness.png"
    },
    {
      "uri": "textures/PayDay_Dallas_normal.png"
    }
  ],
  "materials": [
    {
      "doubleSided": true,
      "name": "PayDay_Dallas",
      "normalTexture": {
        "index": 2
      },
      "pbrMetallicRoughness": {
        "baseColorTexture": {
          "index": 0
        },
        "metallicRoughnessTexture": {
          "index": 1
        }
      }
    }
  ],
  "meshes": [
    {
      "name": "Dallas_PayDay_Dallas_0",
      "primitives": [
        {
          "attributes": {
            "NORMAL": 1,
            "POSITION": 0,
            "TANGENT": 2,
            "TEXCOORD_0": 3,
            "TEXCOORD_1": 4,
            "TEXCOORD_2": 5
          },
          "indices": 6,
          "material": 0,
          "mode": 4
        }
      ]
    }
  ],
  "nodes": [
    {
      "children": [
        1
      ],
      "matrix": [
        1.0,
        0.0,
        0.0,
        0.0,
        0.0,
        2.220446049250313e-16,
        -1.0,
        0.0,
        0.0,
        1.0,
        2.220446049250313e-16,
        0.0,
        0.0,
        0.0,
        0.0,
        1.0
      ],
      "name": "Sketchfab_model"
    },
    {
      "children": [
        2
      ],
      "matrix": [
        0.009999999776482582,
        0.0,
        0.0,
        0.0,
        0.0,
        0.0,
        0.009999999776482582,
        0.0,
        0.0,
        -0.009999999776482582,
        0.0,
        0.0,
        0.0,
        0.0,
        0.0,
        1.0
      ],
      "name": "0a178ea198cb48c3818bdbbbebbf795d.fbx"
    },
    {
      "children": [
        3
      ],
      "name": "RootNode"
    },
    {
      "children": [
        4
      ],
      "matrix": [
        6.207542896270752,
        0.0,
        0.0,
        0.0,
        0.0,
        6.888204097747711,
        1.122231027519146e-06,
        0.0,
        0.0,
        -1.122231027519146e-06,
        6.888204097747711,
        0.0,
        0.0,
        0.0,
        0.0,
        1.0
      ],
      "name": "Dallas"
    },
    {
      "mesh": 0,
      "name": "Dallas_PayDay_Dallas_0"
    }
  ],
  "samplers": [
    {
      "magFilter": 9729,
      "minFilter": 9987,
      "wrapS": 10497,
      "wrapT": 10497
    }
  ],
  "scene": 0,
  "scenes": [
    {
      "name": "Sketchfab_Scene",
      "nodes": [
        0
      ]
    }
  ],
  "textures": [
    {
      "sampler": 0,
      "source": 0
    },
    {
      "sampler": 0,
      "source": 1
    },
    {
      "sampler": 0,
      "source": 2
    }
  ]
}
