{
  "accessors": [
    {
      "bufferView": 2,
      "componentType": 5126,
      "count": 1356,
      "max": [
        3.3180620670318604,
        -0.05791840702295303,
        68.7005844116211
      ],
      "min": [
        -3.3180620670318604,
        -4.738460063934326,
        61.903594970703125
      ],
      "type": "VEC3"
    },
    {
      "bufferView": 2,
      "byteOffset": 16272,
      "componentType": 5126,
      "count": 1356,
      "max": [
        0.9999967217445374,
        0.9988301992416382,
        1.0
      ],
      "min": [
        -0.9999967217445374,
        -0.9995514750480652,
        -1.0
      ],
      "type": "VEC3"
    },
    {
      "bufferView": 3,
      "componentType": 5126,
      "count": 1356,
      "max": [
        1.0,
        0.998138964176178,
        0.9812324643135071,
        1.0
      ],
      "min": [
        -0.9999507665634155,
        -1.0,
        -0.9821568727493286,
        1.0
      ],
      "type": "VEC4"
    },
    {
      "bufferView": 1,
      "componentType": 5126,
      "count": 1356,
      "max": [
        0.9872992038726807,
        0.9903591275215149
      ],
      "min": [
        0.1343381553888321,
        0.01200137846171856
      ],
      "type": "VEC2"
    },
    {
      "bufferView": 0,
      "componentType": 5125,
      "count": 4788,
      "type": "SCALAR"
    }
  ],
  "asset": {
    "extras": {
      "author": "DanlyVostok (https://sketchfab.com/1799danly)",
      "license": "CC-BY-4.0 (http://creativecommons.org/licenses/by/4.0/)",
      "source": "https://sketchfab.com/3d-models/carbon-mask-low-poly-2350f25aa25749398abd6a26f769d0ee",
      "title": "Carbon Mask Low Poly"
    },
    "generator": "Sketchfab-16.58.0",
    "version": "2.0"
  },
  "bufferViews": [
    {
      "buffer": 0,
      "byteLength": 19152,
      "name": "floatBufferViews",
      "target": 34963
    },
    {
      "buffer": 0,
      "byteLength": 10848,
      "byteOffset": 19152,
      "byteStride": 8,
      "name": "floatBufferViews",
      "target": 34962
    },
    {
      "buffer": 0,
      "byteLength": 32544,
      "byteOffset": 30000,
      "byteStride": 12,
      "name": "floatBufferViews",
      "target": 34962
    },
    {
      "buffer": 0,
      "byteLength": 21696,
      "byteOffset": 62544,
      "byteStride": 16,
      "name": "floatBufferViews",
      "target": 34962
    }
  ],
  "buffers": [
    {
      "byteLength": 84240,
      "uri": "scene.bin"
    }
  ],
  "images": [
    {
      "uri": "textures/Scene_-_Root_baseColor.png"
    },
    {
      "uri": "textures/Scene_-_Root_metallicRoughness.png"
    },
    {
      "uri": "textures/Scene_-_Root_normal.png"
    }
  ],
  "materials": [
    {
      "doubleSided": true,
      "name": "Scene_-_Root",
      "normalTexture": {
        "index": 2
      },
      "occlusionTexture": {
        "index": 1
      },
      "pbrMetallicRoughness": {
        "baseColorTexture": {
          "index": 0
        },
        "metallicRoughnessTexture": {
          "index": 1
        }
      }
    }
  ],
  "meshes": [
    {
      "name": "polySurface1__0",
      "primitives": [
        {
          "attributes": {
            "NORMAL": 1,
            "POSITION": 0,
            "TANGENT": 2,
            "TEXCOORD_0": 3
          },
          "indices": 4,
          "material": 0,
          "mode": 4
        }
      ]
    }
  ],
  "nodes": [
    {
      "children": [
        1
      ],
      "matrix": [
        1.1772551536560059,
        0.0,
        0.0,
        0.0,
        0.0,
        2.6140315548950485e-16,
        -1.1772551536560059,
        0.0,
        0.0,
        1.1772551536560059,
        2.6140315548950485e-16,
        0.0,
        0.0,
        0.0,
        0.0,
        1.0
      ],
      "name": "Sketchfab_model"
    },
    {
      "children": [
        2
      ],
      "matrix": [
        0.02539999969303608,
        0.0,
        0.0,
        0.0,
        0.0,
        0.0,
        0.02539999969303608,
        0.0,
        0.0,
        -0.02539999969303608,
        0.0,
        0.0,
        0.0,
        0.0,
        0.0,
        1.0
      ],
      "name": "MASK FINAL LOW POLY.fbx"
    },
    {
      "children": [
        3
      ],
      "name": "RootNode"
    },
    {
      "children": [
        4
      ],
      "matrix": [
        1.0,
        0.0,
        0.0,
        0.0,
        0.0,
        2.220446049250313e-16,
        -1.0,
        0.0,
        0.0,
        1.0,
        2.220446049250313e-16,
        0.0,
        0.0,
        65.29988098144531,
        2.3981921672821045,
        1.0
      ],
      "name": "polySurface1"
    },
    {
      "children": [
        5
      ],
      "matrix": [
        1.0,
        0.0,
        -0.0,
        0.0,
        0.0,
        1.0,
        0.0,
        0.0,
        0.0,
        0.0,
        1.0,
        0.0,
        0.0,
        2.3981893062591553,
        -65.29988098144531,
        1.0
      ],
      "name": "Object_4"
    },
    {
      "mesh": 0,
      "name": "polySurface1__0"
    }
  ],
  "samplers": [
    {
      "magFilter": 9729,
      "minFilter": 9987,
      "wrapS": 10497,
      "wrapT": 10497
    }
  ],
  "scene": 0,
  "scenes": [
    {
      "name": "Sketchfab_Scene",
      "nodes": [
        0
      ]
    }
  ],
  "textures": [
    {
      "sampler": 0,
      "source": 0
    },
    {
      "sampler": 0,
      "source": 1
    },
    {
      "sampler": 0,
      "source": 2
    }
  ]
}
