{
  "accessors": [
    {
      "bufferView": 2,
      "componentType": 5126,
      "count": 21689,
      "max": [
        0.9653657078742981,
        0.8220616579055786,
        2.2072415351867676
      ],
      "min": [
        -0.9653658866882324,
        -1.997999668121338,
        -0.26357585191726685
      ],
      "type": "VEC3"
    },
    {
      "bufferView": 2,
      "byteOffset": 260268,
      "componentType": 5126,
      "count": 21689,
      "max": [
        0.997136116027832,
        0.9996827244758606,
        1.0
      ],
      "min": [
        -0.9971362948417664,
        -0.9928011894226074,
        -1.0
      ],
      "type": "VEC3"
    },
    {
      "bufferView": 3,
      "componentType": 5126,
      "count": 21689,
      "max": [
        1.0,
        0.9981675744056702,
        0.9991810917854309,
        1.0
      ],
      "min": [
        -1.0,
        -0.9986794590950012,
        -0.9993011951446533,
        -1.0
      ],
      "type": "VEC4"
    },
    {
      "bufferView": 1,
      "componentType": 5126,
      "count": 21689,
      "max": [
        0.9961503148078918,
        0.9525530934333801
      ],
      "min": [
        0.003849620930850506,
        0.0038495997432619333
      ],
      "type": "VEC2"
    },
    {
      "bufferView": 1,
      "byteOffset": 173512,
      "componentType": 5126,
      "count": 21689,
      "max": [
        0.9961503148078918,
        0.9525530934333801
      ],
      "min": [
        0.003849620930850506,
        0.0038495997432619333
      ],
      "type": "VEC2"
    },
    {
      "bufferView": 1,
      "byteOffset": 347024,
      "componentType": 5126,
      "count": 21689,
      "max": [
        0.9961503148078918,
        0.9525530934333801
      ],
      "min": [
        0.003849620930850506,
        0.0038495997432619333
      ],
      "type": "VEC2"
    },
    {
      "bufferView": 0,
      "componentType": 5125,
      "count": 114606,
      "type": "SCALAR"
    }
  ],
  "asset": {
    "extras": {
      "author": "sui (https://sketchfab.com/jjosh.wwashington)",
      "license": "CC-BY-4.0 (http://creativecommons.org/licenses/by/4.0/)",
      "source": "https://sketchfab.com/3d-models/plague-doctor-mask-d5a913dd1c7d4685b160c74584e2e2ab",
      "title": "Plague Doctor Mask"
    },
    "generator": "Sketchfab-16.7.0",
    "version": "2.0"
  },
  "bufferViews": [
    {
      "buffer": 0,
      "byteLength": 458424,
      "name": "floatBufferViews",
      "target": 34963
    },
    {
      "buffer": 0,
      "byteLength": 520536,
      "byteOffset": 458424,
      "byteStride": 8,
      "name": "floatBufferViews",
      "target": 34962
    },
    {
      "buffer": 0,
      "byteLength": 520536,
      "byteOffset": 978960,
      "byteStride": 12,
      "name": "floatBufferViews",
      "target": 34962
    },
    {
      "buffer": 0,
      "byteLength": 347024,
      "byteOffset": 1499496,
      "byteStride": 16,
      "name": "floatBufferViews",
      "target": 34962
    }
  ],
  "buffers": [
    {
      "byteLength": 1846520,
      "uri": "scene.bin"
    }
  ],
  "images": [
    {
      "uri": "textures/Mask_baseColor.png"
    },
    {
      "uri": "textures/Mask_metallicRoughness.png"
    },
    {
      "uri": "textures/Mask_normal.png"
    }
  ],
  "materials": [
    {
      "doubleSided": true,
      "name": "Mask",
      "normalTexture": {
        "index": 2,
        "texCoord": 1
      },
      "pbrMetallicRoughness": {
        "baseColorTexture": {
          "index": 0
        },
        "metallicRoughnessTexture": {
          "index": 1
        }
      }
    }
  ],
  "meshes": [
    {
      "name": "PlagueDoctorMask_Mask_0",
      "primitives": [
        {
          "attributes": {
            "NORMAL": 1,
            "POSITION": 0,
            "TANGENT": 2,
            "TEXCOORD_0": 3,
            "TEXCOORD_1": 4,
            "TEXCOORD_2": 5
          },
          "indices": 6,
          "material": 0,
          "mode": 4
        }
      ]
    }
  ],
  "nodes": [
    {
      "children": [
        1
      ],
      "matrix": [
        1.0,
        0.0,
        0.0,
        0.0,
        0.0,
        2.220446049250313e-16,
        -1.0,
        0.0,
        0.0,
        1.0,
        2.220446049250313e-16,
        0.0,
        0.0,
        0.0,
        0.0,
        1.0
      ],
      "name": "Sketchfab_model"
    },
    {
      "children": [
        2
      ],
      "matrix": [
        0.009999999776482582,
        0.0,
        0.0,
        0.0,
        0.0,
        0.0,
        0.009999999776482582,
        0.0,
        0.0,
        -0.009999999776482582,
        0.0,
        0.0,
        0.0,
        0.0,
        0.0,
        1.0
      ],
      "name": "cmask.fbx"
    },
    {
      "children": [
        3
      ],
      "name": "RootNode"
    },
    {
      "children": [
        4
      ],
      "matrix": [
        100.0,
        0.0,
        0.0,
        0.0,
        0.0,
        -2.8212996916465727e-05,
        -99.99999999999602,
        0.0,
        0.0,
        99.99999999999602,
        -2.8212996916465727e-05,
        0.0,
        0.0,
        0.0,
        0.0,
        1.0
      ],
      "name": "PlagueDoctorMask"
    },
    {
      "mesh": 0,
      "name": "PlagueDoctorMask_Mask_0"
    }
  ],
  "samplers": [
    {
      "magFilter": 9729,
      "minFilter": 9987,
      "wrapS": 10497,
      "wrapT": 10497
    }
  ],
  "scene": 0,
  "scenes": [
    {
      "name": "Sketchfab_Scene",
      "nodes": [
        0
      ]
    }
  ],
  "textures": [
    {
      "sampler": 0,
      "source": 0
    },
    {
      "sampler": 0,
      "source": 1
    },
    {
      "sampler": 0,
      "source": 2
    }
  ]
}
